<?xml version="1.0" encoding="UTF-8" standalone="no"?>
<!DOCTYPE svg PUBLIC "-//W3C//DTD SVG 1.1//EN" "http://www.w3.org/Graphics/SVG/1.1/DTD/svg11.dtd">
<svg width="100%" height="100%" viewBox="0 0 1050 1050" version="1.1" xmlns="http://www.w3.org/2000/svg" xmlns:xlink="http://www.w3.org/1999/xlink" xml:space="preserve" xmlns:serif="http://www.serif.com/" style="fill-rule:evenodd;clip-rule:evenodd;stroke-linecap:round;stroke-linejoin:round;">
    <g id="svg" transform="matrix(4.166667,0,0,4.166667,0,0)">
        <g transform="matrix(0,1,1,0,234.0905,54.555)">
            <path d="M-36,-180L106.778,-180C148.221,-180 180,-148 180,-108C180,-68 146.481,-36 108,-36L-36,-36" style="fill:none;fill-rule:nonzero;stroke:rgb(199,234,70);stroke-width:6px;"/>
        </g>
        <g transform="matrix(1,0,0,1,174.0905,210.555)">
            <path d="M0,-48C0,-21.49 -21.49,0 -48,0C-74.51,0 -96,-21.49 -96,-48" style="fill:none;fill-rule:nonzero;stroke:rgb(128,128,128);stroke-width:6px;"/>
        </g>
        <g transform="matrix(0,-1,-1,0,100.0905,126.555)">
            <circle cx="-8" cy="0" r="8" style="fill:none;stroke:rgb(128,128,128);stroke-width:6px;"/>
        </g>
        <g transform="matrix(0,-1,-1,0,152.0905,126.555)">
            <circle cx="-8" cy="0" r="8" style="fill:none;stroke:rgb(128,128,128);stroke-width:6px;"/>
        </g>
    </g>
</svg>
